<svg xmlns="http://www.w3.org/2000/svg" viewBox="0 0 24 24" width="48" height="48">
  <path fill="#000" d="M16.365 1.43c0 1.14-.45 2.22-1.18 3.07-.86 1-2.17 1.77-3.49 1.5-.07-1.19.45-2.42 1.18-3.27.86-1.01 2.18-1.79 3.49-1.3zM20.5 7.5c-.07-.09-.16-.18-.24-.27-1.14-1.2-2.58-1.66-4.02-1.66-.84 0-1.68.17-2.49.52-.8.34-1.6.86-2.32 1.51C9.1 10.09 8 12.09 8 14.3c0 .26.03.52.08.77.24 1.25.91 2.39 1.86 3.34.83.82 1.82 1.46 2.9 1.88.8.31 1.66.47 2.52.47 1.34 0 2.7-.39 3.88-1.17 1.12-.73 2.07-1.76 2.75-2.99.55-1 .86-2.08.86-3.22 0-1.4-.49-2.76-1.45-3.77z"/>
</svg>