<svg xmlns="http://www.w3.org/2000/svg" viewBox="0 0 48 48" width="48" height="48">
  <defs></defs>
  <path fill="#EA4335" d="M24 9.5c3.54 0 6.12 1.53 7.52 2.8l5.6-5.6C34.9 4 29.8 2 24 2 14.9 2 7.4 7.6 4 15.2l6.6 5.1C12.8 14.2 17.9 9.5 24 9.5z"/>
  <path fill="#34A853" d="M46.5 24.5c0-1.6-.1-2.8-.3-4H24v8.1h12.7c-.6 3.6-3.1 6.6-6.7 8.5l6.6 5.1C43.6 38.3 46.5 31.9 46.5 24.5z"/>
  <path fill="#4A90E2" d="M10.6 29.8A14.8 14.8 0 0 1 9 24.5c0-1.6.3-3.1.8-4.5L4.1 14.9C2.2 18.3 1 21.9 1 25.9c0 4 1.3 7.6 3.6 10.8l5.9-6.9z"/>
  <path fill="#FBBC05" d="M24 46c6.5 0 12-2.1 16.1-5.8l-7.7-6.1C29.8 33.9 27 34.9 24 34.9c-7 0-12.9-4.1-15-9.7L1 36.6C5.4 42.7 14 46 24 46z"/>
</svg>